<?xml version="1.0" standalone="no"?>
<!DOCTYPE svg PUBLIC "-//W3C//DTD SVG 20010904//EN"
 "http://www.w3.org/TR/2001/REC-SVG-20010904/DTD/svg10.dtd">
<svg version="1.0" xmlns="http://www.w3.org/2000/svg"
 width="512.000000pt" height="512.000000pt" viewBox="0 0 512.000000 512.000000"
 preserveAspectRatio="xMidYMid meet">
<metadata>
Created by potrace 1.15, written by Peter Selinger 2001-2017
</metadata>
<g transform="translate(0.000000,512.000000) scale(0.100000,-0.100000)"
fill="#000000" stroke="none">
<path d="M2455 5113 c-934 -40 -1760 -575 -2181 -1412 -181 -361 -266 -726
-266 -1141 0 -416 85 -779 268 -1143 290 -579 774 -1016 1382 -1248 286 -109
576 -161 902 -161 252 0 467 29 693 92 851 239 1528 916 1767 1767 63 226 92
441 92 693 0 252 -29 467 -92 693 -239 851 -916 1528 -1767 1767 -241 68 -550
104 -798 93z m-270 -1393 c98 -14 217 -46 300 -81 70 -29 199 -101 244 -137
l24 -19 -132 -171 c-73 -94 -135 -174 -140 -176 -4 -3 -39 15 -78 38 -324 194
-750 98 -958 -214 -200 -300 -153 -687 113 -930 75 -69 208 -140 312 -167 83
-21 253 -21 336 1 175 45 325 150 424 296 38 56 80 140 80 161 0 5 -145 10
-337 11 l-338 3 0 225 0 225 585 0 585 0 -1 -170 c-1 -198 -11 -269 -60 -422
-71 -224 -216 -424 -414 -572 -284 -212 -666 -282 -1010 -185 -129 37 -309
131 -415 217 -207 169 -339 379 -407 652 -32 130 -32 380 0 510 68 273 200
484 407 651 244 198 584 296 880 254z m1915 -845 l0 -165 165 0 165 0 0 -150
0 -150 -165 0 -165 0 0 -165 0 -165 -150 0 -150 0 0 165 0 165 -165 0 -165 0
0 150 0 150 165 0 165 0 0 165 0 165 150 0 150 0 0 -165z"/>
</g>
</svg>
